PathFileType	4	(X/Y/Z)	C:/Users/opensim2020/Desktop/walking_exp_matlab/subject01_walking14_straight_03.trc																																																																																																																												
DataRate	CameraRate	NumFrames	NumMarkers	Units	OrigDataRate	OrigDataStartFrame	OrigNumFrames																																																																																																																								
100	100	8	42	mm	100	1628	121																																																																																																																								
Frame#	Time	LFHD			RFHD			LBHD			RBHD			C7			T10			CLAV			STRN			RBAK			LSHO			LUPA			LELB			LFRM			LWRA			LWRB			LFIN			RSHO			RUPA			RELB			RFRM			RWRA			RWRB			RFIN			LASI			RASI			LPSI			RPSI			LTHI			LKNE			LTIB			LANK			LHEE			LTOE			RTHI			RKNE			RTIB			RANK			RHEE			RTOE			*39			*40			*41		
		X1	Y1	Z1	X2	Y2	Z2	X3	Y3	Z3	X4	Y4	Z4	X5	Y5	Z5	X6	Y6	Z6	X7	Y7	Z7	X8	Y8	Z8	X9	Y9	Z9	X10	Y10	Z10	X11	Y11	Z11	X12	Y12	Z12	X13	Y13	Z13	X14	Y14	Z14	X15	Y15	Z15	X16	Y16	Z16	X17	Y17	Z17	X18	Y18	Z18	X19	Y19	Z19	X20	Y20	Z20	X21	Y21	Z21	X22	Y22	Z22	X23	Y23	Z23	X24	Y24	Z24	X25	Y25	Z25	X26	Y26	Z26	X27	Y27	Z27	X28	Y28	Z28	X29	Y29	Z29	X30	Y30	Z30	X31	Y31	Z31	X32	Y32	Z32	X33	Y33	Z33	X34	Y34	Z34	X35	Y35	Z35	X36	Y36	Z36	X37	Y37	Z37	X38	Y38	Z38	X39	Y39	Z39	X40	Y40	Z40	X41	Y41	Z41	X42	Y42	Z42
																																																																																																																															
31	0.3	-309.87454	1664.07153	1472.09253	-262.72281	1671.00488	1574.85535	-417.32129	1620.05103	1516.5116	-369.64716	1625.68127	1626.33777	-447.97003	1431.10242	1549.41309	-490.56314	1136.86816	1546.2771	-303.55026	1361.53857	1530.24561	-265.36267	1207.64258	1518.19849	-498.95258	1239.05103	1625.61804	-381.45129	1398.51294	1379.63721	-441.18729	1226.01196	1290.40051	-477.56937	1077.89526	1286.71667	-445.80435	967.15131	1259.13928	-365.94363	852.16357	1264.58472	-424.3866	846.39136	1254.11145	-380.90387	777.55688	1232.62939	-353.20816	1398.31335	1686.84143	-416.07324	1202.22388	1790.13831	-407.2059	1074.19641	1796.53113	-347.0224	964.71075	1819.599	-236.09091	879.12042	1793.2655	-277.6347	864.39325	1829.93933	-217.29016	807.52899	1836.01697	-325.03485	939.32306	1418.03796	-307.43887	934.2851	1633.35144	-505.22699	940.30432	1479.53027	-494.20966	945.79626	1623.0509	-264.68686	621.34631	1345.91199	-236.81897	490.35339	1356.60144	-342.18887	336.05591	1369.31677	-441.26059	146.78827	1434.92419	-479.11121	132.81572	1499.87146	-333.9729	57.11251	1400.50647	-372.70905	601.91864	1699.02783	-376.12421	442.259	1681.33301	-448.0257	279.99066	1698.68726	-496.96335	77.12439	1659.80933	-549.29083	39.68924	1612.78247	-359.74271	34.32368	1664.57104	-279.88382	1704.67041	1557.56738	1973.06201	1023.84235	-3102.00732	2012.61084	1022.23254	-3140.6355
32	0.31	-297.79211	1663.2915	1470.98145	-250.27449	1670.47009	1573.59741	-404.88092	1619.25916	1515.9978	-357.06226	1625.35791	1625.56873	-435.57159	1430.47864	1549.53308	-478.56921	1136.3833	1547.93262	-291.3945	1360.5957	1529.8136	-253.63005	1206.56677	1517.90491	-486.40714	1238.87793	1627.02893	-369.92383	1397.55261	1379.58313	-431.11887	1224.92322	1291.06274	-468.45621	1077.61841	1288.19775	-440.61755	966.17609	1260.20471	-364.75137	848.28931	1264.66028	-423.45477	844.69177	1254.58911	-382.84827	774.37091	1232.65723	-340.04895	1398.10645	1686.55444	-402.10086	1202.32727	1790.84387	-392.75571	1074.17139	1797.64172	-329.54666	965.97278	1819.64563	-216.2907	884.07483	1791.74097	-257.10358	867.66846	1828.5354	-194.70464	812.90143	1833.90002	-313.88586	938.99005	1418.6748	-296.09579	932.953	1633.92432	-493.77658	939.53851	1480.53882	-482.92743	944.86023	1624.04321	-250.09253	622.94678	1345.70483	-221.06151	491.42004	1356.61328	-318.97995	330.92288	1368.3717	-407.49319	136.7327	1433.63953	-443.74179	119.4894	1498.61328	-294.74872	54.43327	1396.66516	-366.57916	601.13458	1699.09937	-372.41391	441.73148	1681.43787	-445.62363	280.12357	1698.47949	-496.50485	77.78168	1659.70874	-549.36047	40.8468	1612.6062	-359.54669	34.33138	1664.59607	-267.49731	1704.09888	1556.24951	1973.16003	1023.43201	-3102.01929	2012.5072	1022.11072	-3140.67017
33	0.32	-285.66641	1662.35168	1469.77808	-237.89998	1669.85364	1572.19128	-392.62454	1618.4668	1515.23047	-344.51126	1624.90454	1624.64246	-423.1189	1429.87805	1549.56079	-466.54178	1135.71301	1549.25989	-279.15503	1359.58081	1529.31177	-241.91057	1205.32861	1517.5116	-473.9231	1238.60974	1628.13342	-358.2605	1396.43616	1379.30188	-420.81851	1223.69043	1291.76208	-458.95255	1077.01221	1289.44116	-434.75595	965.14368	1260.79419	-363.24509	844.48077	1264.83386	-422.07181	843.13306	1254.97583	-384.17059	771.35773	1232.79456	-326.84946	1397.70923	1686.14282	-387.96594	1202.23096	1791.4054	-378.23227	1074.03015	1798.65088	-312.1676	967.1499	1819.46472	-196.83261	888.89691	1790.05896	-236.76071	870.99207	1827.14148	-172.53792	818.33167	1831.61145	-302.52271	938.50769	1419.20154	-284.70993	931.48486	1634.47302	-482.54715	938.64355	1481.28198	-471.52994	943.75861	1624.79932	-235.62163	624.06958	1345.14282	-205.61299	492.37408	1356.71863	-295.77676	325.98041	1367.06763	-372.68832	126.01711	1431.11023	-407.02966	106.34023	1496.64014	-254.83102	52.84127	1392.96484	-360.19083	600.50366	1699.22095	-368.61444	441.10675	1681.31299	-442.92618	280.32993	1698.19983	-495.83054	78.46825	1659.646	-549.58435	42.68309	1612.42993	-359.48743	34.06697	1664.44153	-255.13522	1703.45618	1554.8241	1973.12695	1023.60974	-3101.979	2012.47095	1022.05273	-3140.83301
34	0.33	-273.50171	1661.27002	1468.34839	-225.50356	1669.15039	1570.66418	-380.57806	1617.64233	1514.224	-331.93671	1624.33643	1623.56628	-410.69678	1429.28882	1549.41333	-454.61951	1135.05737	1550.25085	-266.94867	1358.41614	1528.63123	-230.07126	1204.00391	1517.12451	-461.38992	1238.18127	1628.9082	-346.45319	1395.12744	1378.88159	-410.30646	1222.27161	1292.1897	-449.38577	1076.18689	1290.61572	-428.60962	964.0752	1261.87537	-361.25378	840.90198	1265.00537	-420.23508	841.72589	1255.26538	-385.09003	768.58008	1232.98706	-313.73328	1397.16309	1685.5885	-373.74622	1202.0293	1791.91516	-363.67044	1073.76685	1799.55481	-294.92896	968.33038	1819.20898	-177.80544	893.62311	1788.24609	-216.67206	874.32147	1825.56921	-150.8403	823.51428	1828.97693	-291.14944	937.7807	1419.65662	-273.22467	929.995	1634.99438	-471.23502	937.62451	1481.88416	-460.13275	942.60187	1625.31714	-222.048	624.69891	1344.9906	-191.33389	492.56372	1356.72913	-272.69379	321.18057	1365.40723	-337.4957	116.40175	1427.84241	-370.33063	93.98669	1493.47168	-215.34126	51.0671	1388.32776	-353.6246	599.92804	1699.26721	-364.66858	440.57394	1681.24329	-440.21213	280.64087	1697.80737	-495.38297	79.17348	1659.50037	-548.95313	43.23912	1612.25171	-359.27322	33.98868	1664.41699	-242.7944	1702.71558	1553.21887	1973.18726	1023.55591	-3101.96606	2012.49463	1022.11102	-3140.81055
35	0.34	-261.39258	1660.2196	1466.81506	-213.09898	1668.33105	1568.97913	-368.33655	1616.66174	1513.13232	-319.40762	1623.6571	1622.28784	-398.12311	1428.47925	1548.98682	-442.72226	1134.23901	1550.98035	-254.62013	1357.17615	1527.9176	-218.19389	1202.60327	1516.66492	-448.9115	1237.62939	1629.35486	-334.61581	1393.68506	1378.27942	-399.52316	1220.68481	1292.44922	-439.4317	1075.30383	1291.62842	-422.12033	962.98456	1262.59033	-358.88864	837.50836	1265.06775	-417.90332	840.45764	1255.48889	-385.55643	766.00085	1233.19092	-300.61267	1396.55371	1684.87915	-359.47	1201.70117	1792.30493	-349.14355	1073.40515	1800.26331	-277.85562	969.47333	1818.82483	-159.15359	898.21948	1786.3385	-196.98837	877.72333	1824.02649	-129.57747	828.83075	1826.38635	-279.57144	936.88757	1419.96228	-261.66833	928.38629	1635.36841	-459.81195	936.5564	1482.28601	-448.4075	941.19537	1625.50171	-208.81268	624.96753	1344.74121	-177.77255	492.8013	1356.59607	-250.01624	317.03244	1363.49451	-300.71713	107.30596	1424.50513	-332.82126	82.66615	1489.68909	-174.82187	50.15424	1384.37073	-346.78699	599.30945	1699.12695	-360.4928	440.25671	1681.2533	-437.70447	281.06656	1697.36694	-494.70874	80.16522	1659.39941	-549.0733	45.26612	1612.08984	-359.13623	33.79248	1664.32556	-230.45619	1701.85449	1551.49927	1973.24365	1023.53485	-3101.94482	2012.51074	1022.06335	-3140.75366
36	0.35	-249.13692	1658.93286	1465.2019	-200.70412	1667.42444	1567.16797	-356.07556	1615.52441	1511.86035	-306.87906	1622.87683	1620.86963	-385.578	1427.60425	1548.3877	-430.62827	1133.3374	1551.35278	-242.19215	1355.85632	1527.00244	-206.19316	1201.12354	1516.12659	-436.48029	1237.05371	1629.54541	-322.63406	1392.15356	1377.50159	-388.61536	1218.95715	1292.60193	-429.50928	1074.19336	1292.49097	-415.27582	961.8418	1263.15881	-355.73596	834.3183	1265.02734	-414.98669	839.31866	1255.67773	-385.27945	763.4776	1233.41052	-287.50897	1395.87598	1684.00732	-345.29373	1201.39807	1792.55127	-334.72903	1072.99573	1800.77771	-261.01016	970.64331	1818.30432	-140.8972	902.69012	1784.31812	-177.73891	881.06519	1822.27246	-109.00205	833.96271	1823.74316	-268.00644	935.85266	1420.13171	-250.02921	926.89746	1635.68188	-448.31085	935.39417	1482.42981	-437.00391	940.27557	1625.61536	-196.29164	624.79559	1344.45215	-165.23936	492.56232	1356.41431	-227.78432	312.87253	1361.23169	-264.61725	99.00412	1419.98486	-295.26465	72.5836	1485.23364	-134.45261	50.04913	1380.71558	-339.49182	598.93909	1699.1178	-356.41177	439.84225	1681.12207	-435.42014	281.85391	1697.11365	-494.14502	81.21097	1659.1272	-548.29413	46.28332	1611.81104	-358.99252	33.73992	1664.33252	-218.13364	1700.8894	1549.58435	1973.06921	1023.41846	-3101.9646	2012.64453	1022.0755	-3140.72217
37	0.36	-237.09648	1657.58557	1463.31165	-188.31972	1666.47131	1565.18005	-343.82596	1614.28076	1510.39722	-294.35651	1621.95703	1619.26904	-372.78387	1426.57532	1547.74231	-418.6243	1132.4325	1551.43628	-229.81247	1354.48206	1526.005	-194.1142	1199.61633	1515.53394	-423.88718	1236.24158	1629.41064	-310.6348	1390.52844	1376.61914	-377.34335	1217.16528	1292.61243	-419.16562	1073.09729	1293.12427	-408.08673	960.76416	1263.5918	-352.71765	831.12537	1265.18762	-411.56305	838.25989	1255.7843	-384.9968	761.59949	1233.71008	-274.40909	1395.16431	1683.05457	-331.15173	1201.06445	1792.5437	-320.45523	1072.63391	1801.10522	-244.50452	971.88983	1817.64722	-123.13332	907.00024	1782.16174	-158.96373	884.46686	1820.552	-88.98527	839.00165	1820.98743	-256.18665	934.67883	1420.08972	-238.36266	925.40405	1635.88525	-436.61295	934.17072	1482.34668	-425.76804	939.64575	1625.56982	-184.36136	624.08289	1344.08374	-153.46492	491.84439	1356.32874	-206.27499	309.36642	1359.04907	-227.39171	92.05025	1415.73267	-257.49979	63.86308	1480.34326	-94.17285	50.9354	1377.50427	-332.09592	598.38422	1698.9259	-351.87302	439.88586	1681.28711	-433.228	282.76917	1696.85156	-493.4603	82.41415	1658.98621	-547.87634	48.02948	1611.44092	-358.85489	33.82619	1664.42578	-205.83441	1699.88599	1547.58533	1973.27283	1023.53979	-3101.85718	2012.49194	1022.08508	-3140.78052
38	0.37	-225.00694	1656.27161	1461.32959	-175.90482	1665.43384	1563.09314	-331.53931	1612.96301	1508.75366	-281.84998	1620.97937	1617.53003	-360.29257	1425.50928	1546.73853	-406.5538	1131.40784	1551.18091	-217.30054	1353.08252	1524.98267	-181.98473	1198.09265	1514.86987	-411.31281	1235.40137	1629.05469	-298.51196	1388.83801	1375.50293	-365.9924	1215.07776	1292.45886	-408.60916	1071.89575	1293.61438	-400.52338	959.6261	1263.87305	-348.8847	828.362	1265.15735	-407.60184	837.3382	1255.8894	-383.62952	759.64056	1233.94568	-261.3779	1394.36646	1681.84094	-317.18518	1200.71924	1792.29199	-306.31586	1072.2981	1801.22839	-228.3163	973.10809	1816.88147	-105.9023	911.11493	1779.86951	-140.78514	887.61658	1818.56299	-69.63941	843.88885	1818.20886	-244.17381	933.48279	1419.96033	-226.63129	924.02332	1635.97217	-424.74756	933.07422	1482.12646	-413.95673	938.82898	1625.20691	-173.09625	622.8822	1343.43164	-142.32033	490.80823	1356.15173	-185.51465	306.21564	1356.97668	-191.21939	86.35989	1410.90649	-220.20126	56.55727	1475.31128	-55.23586	53.09497	1374.15942	-324.32059	598.05603	1698.90906	-347.16251	439.70901	1681.35156	-430.77673	283.98297	1696.65662	-492.71405	84.05118	1658.84656	-547.54993	50.24112	1611.32178	-358.66153	33.68943	1664.49622	-193.55898	1698.79004	1545.42065	1973.19275	1023.55139	-3101.94531	2012.61584	1022.12836	-3140.70264
